<mxfile host="app.diagrams.net" agent="Mozilla/5.0 (Windows NT 10.0; Win64; x64) AppleWebKit/537.36 (KHTML, like Gecko) Chrome/129.0.0.0 Safari/537.36" version="24.7.17">
  <diagram id="i-qfWB6MYdcYrvCWzVtr" name="Page-1">
    <mxGraphModel dx="1034" dy="446" grid="1" gridSize="10" guides="1" tooltips="1" connect="1" arrows="1" fold="1" page="1" pageScale="1" pageWidth="1700" pageHeight="1100" math="0" shadow="0">
      <root>
        <mxCell id="0" />
        <mxCell id="1" parent="0" />
        <mxCell id="xqzMywl56x3Y98zwnLPM-11" value="" style="edgeStyle=orthogonalEdgeStyle;rounded=0;orthogonalLoop=1;jettySize=auto;html=1;" edge="1" parent="1" source="xqzMywl56x3Y98zwnLPM-1" target="xqzMywl56x3Y98zwnLPM-2">
          <mxGeometry relative="1" as="geometry" />
        </mxCell>
        <mxCell id="xqzMywl56x3Y98zwnLPM-1" value="echat engine" style="ellipse;whiteSpace=wrap;html=1;" vertex="1" parent="1">
          <mxGeometry x="420" y="470" width="120" height="80" as="geometry" />
        </mxCell>
        <mxCell id="xqzMywl56x3Y98zwnLPM-2" value="mongodb" style="shape=cylinder3;whiteSpace=wrap;html=1;boundedLbl=1;backgroundOutline=1;size=15;" vertex="1" parent="1">
          <mxGeometry x="450" y="310" width="60" height="80" as="geometry" />
        </mxCell>
        <mxCell id="xqzMywl56x3Y98zwnLPM-5" style="edgeStyle=orthogonalEdgeStyle;rounded=0;orthogonalLoop=1;jettySize=auto;html=1;entryX=0;entryY=0.5;entryDx=0;entryDy=0;" edge="1" parent="1" source="xqzMywl56x3Y98zwnLPM-4" target="xqzMywl56x3Y98zwnLPM-1">
          <mxGeometry relative="1" as="geometry" />
        </mxCell>
        <mxCell id="xqzMywl56x3Y98zwnLPM-4" value="a" style="shape=umlActor;verticalLabelPosition=bottom;verticalAlign=top;html=1;outlineConnect=0;" vertex="1" parent="1">
          <mxGeometry x="110" y="480" width="30" height="60" as="geometry" />
        </mxCell>
        <mxCell id="xqzMywl56x3Y98zwnLPM-7" value="v1/sendMessage" style="text;html=1;align=center;verticalAlign=middle;whiteSpace=wrap;rounded=0;" vertex="1" parent="1">
          <mxGeometry x="210" y="470" width="60" height="30" as="geometry" />
        </mxCell>
        <mxCell id="xqzMywl56x3Y98zwnLPM-8" value="b" style="shape=umlActor;verticalLabelPosition=bottom;verticalAlign=top;html=1;outlineConnect=0;" vertex="1" parent="1">
          <mxGeometry x="830" y="480" width="30" height="60" as="geometry" />
        </mxCell>
        <mxCell id="xqzMywl56x3Y98zwnLPM-10" value="how message flows from user a to b ?&lt;div&gt;&lt;br&gt;&lt;/div&gt;&lt;div&gt;message from a is saved to mongodb, then delivered to b.&lt;/div&gt;" style="text;html=1;whiteSpace=wrap;overflow=hidden;rounded=0;" vertex="1" parent="1">
          <mxGeometry x="120" y="80" width="290" height="120" as="geometry" />
        </mxCell>
      </root>
    </mxGraphModel>
  </diagram>
</mxfile>
